<?xml version="1.0" standalone="no"?>
<!DOCTYPE svg PUBLIC "-//W3C//DTD SVG 20010904//EN"
 "http://www.w3.org/TR/2001/REC-SVG-20010904/DTD/svg10.dtd">
<svg version="1.0" xmlns="http://www.w3.org/2000/svg"
 width="819.000000pt" height="819.000000pt" viewBox="0 0 819.000000 819.000000"
 preserveAspectRatio="xMidYMid meet">
<metadata>
Created by potrace 1.16, written by Peter Selinger 2001-2019
</metadata>
<g transform="translate(0.000000,819.000000) scale(0.100000,-0.100000)"
fill="#000000" stroke="none">
<path d="M4075 7070 l-640 -5 -81 -33 c-120 -48 -216 -122 -292 -223 -96 -130
-122 -226 -122 -461 l0 -168 164 0 164 0 4 158 c3 139 6 162 26 204 37 74 94
131 164 164 l63 29 590 0 590 0 62 -29 c72 -33 134 -95 166 -164 18 -40 22
-71 25 -204 l4 -158 170 0 170 0 -4 178 c-7 234 -31 317 -140 464 -85 116
-232 208 -385 240 -45 10 -205 12 -698 8z"/>
<path d="M1137 6053 c-58 -17 -110 -63 -141 -125 l-26 -52 0 -683 c0 -673 0
-683 21 -740 30 -78 97 -148 179 -186 64 -29 70 -30 330 -43 146 -7 280 -13
298 -14 l32 0 0 -84 c0 -70 4 -88 23 -117 36 -54 82 -79 143 -79 l54 0 0 -142
c0 -130 2 -148 24 -195 65 -140 227 -214 368 -168 79 25 152 86 185 154 26 52
28 67 32 204 l3 147 54 0 c63 0 125 27 150 65 12 18 20 22 33 16 9 -5 56 -19
104 -30 79 -19 119 -21 358 -21 l269 0 0 -56 0 -56 -322 5 c-286 4 -333 7
-412 26 -50 11 -96 21 -103 21 -10 0 -13 -26 -13 -110 0 -132 -12 -197 -53
-273 -78 -148 -272 -246 -432 -218 -93 16 -165 51 -224 108 l-51 49 0 -933 0
-933 320 0 320 0 0 839 0 839 51 51 c28 28 51 51 52 51 3 0 3 33 5 -917 l2
-863 1350 0 1350 0 0 894 0 893 50 -50 50 -50 0 -843 0 -844 320 0 320 0 0
935 0 936 -30 -35 c-76 -86 -228 -144 -344 -131 -119 14 -217 69 -291 163 -68
86 -85 149 -85 308 0 158 3 155 -127 116 -85 -24 -99 -25 -416 -29 l-328 -5 3
54 3 53 295 5 295 5 80 31 81 30 24 -29 c39 -48 79 -67 142 -67 l56 0 4 -147
c4 -171 17 -213 88 -281 56 -56 115 -82 197 -89 126 -10 240 56 294 171 28 58
29 67 29 204 l0 142 52 0 c37 0 63 7 95 25 60 36 83 84 83 178 l0 73 193 12
c105 7 222 12 259 12 88 0 160 16 228 50 70 36 112 80 147 155 l28 60 0 695
c0 693 0 695 -22 735 -12 22 -36 54 -55 72 -65 62 -67 62 -500 63 l-393 1 -3
-91 -3 -90 193 -2 c558 -7 555 -6 572 -24 14 -14 16 -88 16 -666 0 -733 3
-701 -74 -740 -34 -17 -68 -22 -196 -29 -85 -4 -208 -11 -272 -15 l-118 -7 0
194 c0 167 -3 200 -19 234 -23 51 -56 81 -106 98 l-40 14 -3 562 -2 561 -73 1
c-39 0 -204 2 -364 3 l-293 1 0 -565 0 -566 -43 -11 c-57 -15 -95 -47 -118
-97 -17 -37 -19 -70 -19 -327 l0 -286 -87 -23 c-174 -45 -228 -50 -443 -48
l-205 3 -3 122 c-4 179 43 163 -482 163 l-428 0 -26 -31 c-25 -29 -26 -36 -26
-145 l0 -114 -234 0 c-206 0 -242 2 -299 20 -36 11 -94 26 -129 33 l-63 13 -5
309 c-3 171 -7 311 -8 312 -54 63 -78 83 -117 94 l-45 13 0 563 0 563 -237 2
c-131 0 -295 2 -365 2 l-128 1 0 -567 c0 -526 -1 -568 -17 -568 -33 0 -99 -41
-123 -77 -24 -35 -25 -43 -30 -247 l-5 -210 -55 3 c-516 26 -542 30 -580 94
-19 31 -20 55 -20 694 l0 662 22 15 c19 14 74 16 390 16 l368 0 0 90 0 90
-242 2 c-134 0 -307 2 -386 2 -86 1 -160 -4 -185 -11z m1593 -1293 c19 -19 20
-33 20 -328 0 -262 -2 -311 -16 -330 l-15 -22 -351 0 c-313 0 -353 2 -370 17
-17 15 -18 39 -18 334 0 275 2 320 16 333 13 14 61 16 365 16 336 0 350 -1
369 -20z m3501 10 c18 -10 19 -25 19 -335 0 -281 -2 -326 -16 -339 -13 -14
-60 -16 -364 -16 -304 0 -351 2 -364 16 -14 13 -16 58 -16 338 0 237 3 325 12
334 16 16 700 17 729 2z m-1793 -506 c5 -10 7 -145 5 -318 -4 -259 -7 -303
-21 -313 -19 -16 -598 -18 -622 -3 -13 8 -16 58 -20 312 -3 167 -1 311 3 321
7 16 33 17 327 17 284 0 320 -2 328 -16z m-23 -967 c13 -20 9 -32 -43 -137
-31 -63 -131 -268 -221 -455 -91 -187 -171 -348 -179 -357 -12 -15 -32 -18
-104 -18 -133 0 -133 -6 0 275 240 509 338 704 355 712 9 4 53 7 97 5 70 -3
82 -6 95 -25z m-783 -124 c26 -23 26 -162 1 -185 -10 -9 -96 -55 -192 -103
l-174 -87 188 -97 c210 -108 211 -108 201 -206 -7 -65 -19 -84 -56 -87 -29 -2
-555 273 -582 304 -22 25 -25 135 -5 162 14 19 564 315 586 316 8 0 23 -7 33
-17z m1058 -28 c168 -82 475 -248 488 -263 13 -17 17 -149 4 -169 -4 -6 -136
-79 -294 -162 -300 -159 -323 -167 -348 -121 -14 27 -12 143 3 162 6 9 96 58
198 110 l187 94 -167 84 c-91 46 -181 94 -198 107 -32 23 -33 26 -33 95 0 75
15 108 50 108 9 0 58 -20 110 -45z m-2326 -21 c12 -11 16 -36 16 -94 0 -79
-12 -110 -44 -110 -28 0 -36 26 -36 110 0 84 8 110 36 110 7 0 20 -7 28 -16z
m3551 -4 c15 -17 17 -31 12 -96 -6 -86 -24 -117 -55 -98 -14 9 -18 29 -20 99
-4 110 19 144 63 95z m-3553 -377 c24 -22 26 -163 2 -187 -19 -19 -36 -20 -52
-4 -19 19 -16 167 5 190 20 22 22 22 45 1z m3550 0 c14 -13 18 -31 18 -94 0
-67 -3 -81 -22 -99 -20 -18 -23 -19 -40 -3 -15 13 -18 32 -18 103 0 105 18
133 62 93z m-3534 -467 c3 -83 2 -86 -22 -98 -44 -19 -56 2 -56 95 0 61 4 85
17 99 14 16 19 17 37 4 18 -11 21 -25 24 -100z m3536 85 c24 -27 19 -169 -6
-185 -13 -8 -23 -8 -35 0 -14 9 -19 28 -21 94 -4 104 19 138 62 91z m-3553
-351 c16 -9 19 -22 19 -94 0 -71 -3 -86 -21 -102 -15 -14 -24 -16 -37 -8 -26
17 -30 183 -6 201 21 16 21 16 45 3z m3551 -7 c27 -24 26 -162 -1 -187 -15
-14 -24 -15 -40 -6 -19 10 -21 20 -21 98 0 108 18 135 62 95z"/>
<path d="M2130 4430 l0 -200 235 0 235 0 -2 198 -3 197 -232 3 -233 2 0 -200z"/>
<path d="M5640 4430 l0 -200 230 2 230 3 1 150 c0 83 0 171 0 198 l-1 47 -230
0 -230 0 0 -200z"/>
<path d="M2983 6062 l-183 -2 0 -90 0 -90 1315 0 1315 0 0 90 0 90 -32 1 c-84
3 -2254 4 -2415 1z"/>
<path d="M1230 3047 c0 -658 4 -1094 10 -1126 23 -125 112 -235 237 -294 68
-32 69 -32 251 -35 l182 -4 0 1176 c0 948 -2 1176 -13 1176 -7 0 -42 30 -77
66 -36 36 -76 71 -90 79 -17 9 -87 15 -210 19 -102 4 -209 9 -237 12 l-53 5 0
-1074z"/>
<path d="M6805 4113 c-141 -4 -322 -23 -338 -37 -7 -6 -32 -37 -56 -68 -23
-31 -53 -64 -67 -73 l-24 -15 0 -1165 0 -1165 168 0 c175 0 219 7 302 50 65
33 137 111 173 188 l32 67 3 1113 2 1112 -47 -2 c-27 -1 -93 -3 -148 -5z"/>
</g>
</svg>
